<svg width="75" height="20" viewBox="0 0 75 20" fill="none" xmlns="http://www.w3.org/2000/svg">
<path fill-rule="evenodd" clip-rule="evenodd" d="M9.1665 14.9309V16.6151C5.87791 16.205 3.33317 13.3997 3.33317 10C3.33317 6.31812 6.31794 3.33335 9.99984 3.33335C13.6817 3.33335 16.6665 6.31812 16.6665 10C16.6665 13.3997 14.1218 16.205 10.8332 16.6151V14.9309C13.198 14.5342 15 12.4776 15 10C15 7.23859 12.7614 5.00002 10 5.00002C7.23858 5.00002 5 7.23859 5 10C5 12.4775 6.80182 14.5341 9.1665 14.9309ZM9.99984 18.3334C14.6022 18.3334 18.3332 14.6024 18.3332 10C18.3332 5.39765 14.6022 1.66669 9.99984 1.66669C5.39746 1.66669 1.6665 5.39765 1.6665 10C1.6665 14.6024 5.39746 18.3334 9.99984 18.3334ZM13.3333 10C13.3333 11.841 11.8409 13.3333 10 13.3333C8.15905 13.3333 6.66667 11.841 6.66667 10C6.66667 8.15907 8.15905 6.66668 10 6.66668C11.8409 6.66668 13.3333 8.15907 13.3333 10Z" fill="#06492C" fill-opacity="0.25"/>
<path d="M25 14.8232L28.8411 5.16266H31.5065L35.3476 14.8232H32.9378L32.3098 13.1895H28.0378L27.4098 14.8232H25ZM28.6147 11.3791H31.7256L30.1701 7.22065L28.6147 11.3791Z" fill="#06492C" fill-opacity="0.25"/>
<path d="M36.2677 14.8232V5.16266H43.3292V6.97313H38.3927V9.00283H43.2197V10.8133H38.3927V13.0127H43.3292V14.8232H36.2677Z" fill="#06492C" fill-opacity="0.25"/>
<path d="M44.9869 14.8232V5.16266H49.6531C50.1789 5.16266 50.656 5.24517 51.0844 5.41018C51.5177 5.5752 51.8706 5.79915 52.1433 6.08204C52.4208 6.36492 52.6325 6.69496 52.7786 7.07214C52.9295 7.4446 53.005 7.84536 53.005 8.2744C53.005 8.69873 52.9295 9.09712 52.7786 9.46959C52.6325 9.84206 52.4208 10.1721 52.1433 10.4597C51.8658 10.7426 51.5128 10.9665 51.0844 11.1315C50.656 11.2966 50.1789 11.3791 49.6531 11.3791H47.1119V14.8232H44.9869ZM47.1119 9.5686H49.3537C49.7821 9.5686 50.1351 9.45073 50.4126 9.21499C50.695 8.97926 50.8361 8.66572 50.8361 8.2744C50.8361 7.87836 50.695 7.56247 50.4126 7.32673C50.1351 7.09099 49.7821 6.97313 49.3537 6.97313H47.1119V9.5686Z" fill="#06492C" fill-opacity="0.25"/>
<path d="M54.2464 12.0085C53.9884 11.3861 53.8594 10.7166 53.8594 10C53.8594 9.28336 53.9884 8.61386 54.2464 7.99151C54.5093 7.36917 54.8695 6.84111 55.3272 6.40736C55.7848 5.96888 56.3373 5.62471 56.9848 5.37482C57.6323 5.12494 58.3285 5 59.0733 5C60.0665 5 60.9574 5.21216 61.746 5.63649C62.5396 6.06082 63.1603 6.65488 63.6082 7.41867C64.056 8.18246 64.28 9.0429 64.28 10C64.28 10.9571 64.056 11.8175 63.6082 12.5813C63.1603 13.3451 62.5396 13.9392 61.746 14.3635C60.9574 14.7878 60.0665 15 59.0733 15C58.3285 15 57.6323 14.8751 56.9848 14.6252C56.3373 14.3753 55.7848 14.0335 55.3272 13.5997C54.8695 13.1612 54.5093 12.6308 54.2464 12.0085ZM56.0428 10C56.0428 10.9147 56.3203 11.6737 56.8753 12.2772C57.4303 12.876 58.1629 13.1754 59.0733 13.1754C59.9788 13.1754 60.7091 12.876 61.2641 12.2772C61.819 11.6737 62.0965 10.9147 62.0965 10C62.0965 9.08062 61.819 8.3239 61.2641 7.72984C60.7091 7.13107 59.9788 6.83168 59.0733 6.83168C58.1581 6.83168 57.423 7.13107 56.868 7.72984C56.3179 8.3239 56.0428 9.08062 56.0428 10Z" fill="#06492C" fill-opacity="0.25"/>
<path d="M65.7697 14.8232V5.16266H69.7057C71.2733 5.16266 72.5464 5.60585 73.5249 6.49222C74.5083 7.3786 75 8.54314 75 9.98586C75 10.9477 74.7761 11.7963 74.3282 12.5318C73.8852 13.2673 73.2644 13.8331 72.466 14.2291C71.6676 14.6252 70.7524 14.8232 69.7203 14.8232H65.7697ZM67.8947 13.0127H69.7057C70.3435 13.0127 70.9033 12.8736 71.3853 12.5955C71.8672 12.3173 72.2275 11.9519 72.466 11.4993C72.7095 11.0467 72.8312 10.5422 72.8312 9.98586C72.8312 9.1042 72.5585 8.38284 72.0133 7.82178C71.468 7.25601 70.7037 6.97313 69.7203 6.97313H67.8947V13.0127Z" fill="#06492C" fill-opacity="0.25"/>
</svg>
