<svg width="16" height="16" viewBox="0 0 16 16" fill="none" xmlns="http://www.w3.org/2000/svg">
<g clip-path="url(#clip0_1_533)">
<path d="M3.99999 2C6.32666 2 8.25533 3.70267 8.60866 5.93C9.392 5.14933 10.4733 4.66667 11.6667 4.66667H14.6667V6.33333C14.6667 8.72667 12.7267 10.6667 10.3333 10.6667H8.66666V14H7.33333V8.66667H6C3.42266 8.66667 1.33333 6.57733 1.33333 4V2H3.99999ZM13.3333 6H11.6667C10.01 6 8.66666 7.34333 8.66666 9V9.33333H10.3333C11.99 9.33333 13.3333 7.99 13.3333 6.33333V6ZM3.99999 3.33333H2.66666V4C2.66666 5.84067 4.15933 7.33333 6 7.33333H7.33333V6.66667C7.33333 4.826 5.84066 3.33333 3.99999 3.33333Z" fill="#06492C" fill-opacity="0.75"/>
</g>
<defs>
<clipPath id="clip0_1_533">
<rect width="16" height="16" fill="white"/>
</clipPath>
</defs>
</svg>
