<svg width="20" height="20" viewBox="0 0 20 20" fill="none" xmlns="http://www.w3.org/2000/svg">
<g clip-path="url(#clip0_1_692)">
<path d="M10.7216 2.5L18.66 16.25C18.7331 16.3767 18.7716 16.5204 18.7716 16.6667C18.7716 16.8129 18.7331 16.9566 18.66 17.0833C18.5868 17.21 18.4817 17.3152 18.355 17.3883C18.2283 17.4615 18.0846 17.5 17.9383 17.5H2.06164C1.91537 17.5 1.77167 17.4615 1.64499 17.3883C1.51831 17.3152 1.41311 17.21 1.33997 17.0833C1.26683 16.9566 1.22833 16.8129 1.22833 16.6667C1.22833 16.5204 1.26684 16.3767 1.33998 16.25L9.27831 2.5C9.35145 2.37333 9.45665 2.26814 9.58333 2.19501C9.71001 2.12187 9.8537 2.08337 9.99998 2.08337C10.1463 2.08337 10.2899 2.12187 10.4166 2.19501C10.5433 2.26814 10.6485 2.37333 10.7216 2.5ZM3.50498 15.8333H16.495L9.99998 4.58334L3.50498 15.8333ZM9.16664 13.3333H10.8333V15H9.16664V13.3333ZM9.16664 7.5H10.8333V11.6667H9.16664V7.5Z" fill="white" fill-opacity="0.5"/>
</g>
<defs>
<clipPath id="clip0_1_692">
<rect width="20" height="20" fill="white"/>
</clipPath>
</defs>
</svg>
