<svg width="120" height="32" viewBox="0 0 120 32" fill="none" xmlns="http://www.w3.org/2000/svg">
<path fill-rule="evenodd" clip-rule="evenodd" d="M15.9998 26.6667C21.8909 26.6667 26.6665 21.891 26.6665 16C26.6665 10.109 21.8909 5.33332 15.9998 5.33332C10.1088 5.33332 5.33317 10.109 5.33317 16C5.33317 21.891 10.1088 26.6667 15.9998 26.6667ZM15.9998 29.3333C23.3636 29.3333 29.3332 23.3638 29.3332 16C29.3332 8.63619 23.3636 2.66666 15.9998 2.66666C8.63604 2.66666 2.6665 8.63619 2.6665 16C2.6665 23.3638 8.63604 29.3333 15.9998 29.3333Z" fill="white"/>
<rect x="14.6665" y="22.6667" width="2.66667" height="5.33333" fill="white"/>
<path fill-rule="evenodd" clip-rule="evenodd" d="M16 24C20.4183 24 24 20.4183 24 16C24 11.5817 20.4183 8 16 8C11.5817 8 8 11.5817 8 16C8 20.4183 11.5817 24 16 24ZM16 21.3333C18.9455 21.3333 21.3333 18.9455 21.3333 16C21.3333 13.0545 18.9455 10.6667 16 10.6667C13.0545 10.6667 10.6667 13.0545 10.6667 16C10.6667 18.9455 13.0545 21.3333 16 21.3333Z" fill="white"/>
<path d="M40 23.7171L46.1458 8.26025H50.4104L56.5562 23.7171H52.7005L51.6956 21.1033H44.8605L43.8557 23.7171H40ZM45.7836 18.2065H50.7609L48.2722 11.553L45.7836 18.2065Z" fill="white"/>
<path d="M58.0283 23.7171V8.26025H69.3267V11.157H61.4284V14.4045H69.1515V17.3013H61.4284V20.8204H69.3267V23.7171H58.0283Z" fill="white"/>
<path d="M71.979 23.7171V8.26025H79.445C80.2863 8.26025 81.0496 8.39227 81.7351 8.65629C82.4283 8.92032 82.993 9.27864 83.4292 9.73126C83.8732 10.1839 84.2121 10.7119 84.4457 11.3154C84.6872 11.9114 84.8079 12.5526 84.8079 13.239C84.8079 13.918 84.6872 14.5554 84.4457 15.1513C84.2121 15.7473 83.8732 16.2753 83.4292 16.7355C82.9852 17.1881 82.4205 17.5464 81.7351 17.8105C81.0496 18.0745 80.2863 18.2065 79.445 18.2065H75.379V23.7171H71.979ZM75.379 15.3098H78.966C79.6514 15.3098 80.2162 15.1212 80.6601 14.744C81.1119 14.3668 81.3378 13.8652 81.3378 13.239C81.3378 12.6054 81.1119 12.1 80.6601 11.7228C80.2162 11.3456 79.6514 11.157 78.966 11.157H75.379V15.3098Z" fill="white"/>
<path d="M86.7942 19.2136C86.3814 18.2178 86.175 17.1466 86.175 16C86.175 14.8534 86.3814 13.7822 86.7942 12.7864C87.2148 11.7907 87.7912 10.9458 88.5234 10.2518C89.2556 9.55021 90.1397 8.99953 91.1757 8.59972C92.2117 8.19991 93.3255 8 94.5173 8C96.1063 8 97.5318 8.33946 98.7936 9.01839C100.063 9.69731 101.056 10.6478 101.773 11.8699C102.49 13.0919 102.848 14.4686 102.848 16C102.848 17.5314 102.49 18.9081 101.773 20.1301C101.056 21.3522 100.063 22.3027 98.7936 22.9816C97.5318 23.6605 96.1063 24 94.5173 24C93.3255 24 92.2117 23.8001 91.1757 23.4003C90.1397 23.0005 89.2556 22.4536 88.5234 21.7595C87.7912 21.058 87.2148 20.2093 86.7942 19.2136ZM89.6685 16C89.6685 17.4635 90.1125 18.678 91.0004 19.6436C91.8884 20.6016 93.0607 21.0806 94.5173 21.0806C95.9661 21.0806 97.1345 20.6016 98.0225 19.6436C98.9105 18.678 99.3545 17.4635 99.3545 16C99.3545 14.529 98.9105 13.3182 98.0225 12.3678C97.1345 11.4097 95.9661 10.9307 94.5173 10.9307C93.0529 10.9307 91.8767 11.4097 90.9888 12.3678C90.1086 13.3182 89.6685 14.529 89.6685 16Z" fill="white"/>
<path d="M105.231 23.7171V8.26025H111.529C114.037 8.26025 116.074 8.96935 117.64 10.3876C119.213 11.8058 120 13.669 120 15.9774C120 17.5163 119.642 18.8741 118.925 20.0509C118.216 21.2277 117.223 22.133 115.946 22.7666C114.668 23.4003 113.204 23.7171 111.553 23.7171H105.231ZM108.632 20.8204H111.529C112.55 20.8204 113.445 20.5978 114.216 20.1528C114.988 19.7077 115.564 19.1231 115.946 18.3989C116.335 17.6747 116.53 16.8675 116.53 15.9774C116.53 14.5667 116.094 13.4125 115.221 12.5149C114.349 11.6096 113.126 11.157 111.553 11.157H108.632V20.8204Z" fill="white"/>
</svg>
