<svg width="32" height="32" viewBox="0 0 32 32" fill="none" xmlns="http://www.w3.org/2000/svg">
<g opacity="0.35">
<g opacity="0.75">
<path fill-rule="evenodd" clip-rule="evenodd" d="M15.9998 26.6667C21.8909 26.6667 26.6665 21.891 26.6665 16C26.6665 10.109 21.8909 5.33332 15.9998 5.33332C10.1088 5.33332 5.33317 10.109 5.33317 16C5.33317 21.891 10.1088 26.6667 15.9998 26.6667ZM15.9998 29.3333C23.3636 29.3333 29.3332 23.3638 29.3332 16C29.3332 8.63619 23.3636 2.66666 15.9998 2.66666C8.63604 2.66666 2.6665 8.63619 2.6665 16C2.6665 23.3638 8.63604 29.3333 15.9998 29.3333Z" fill="#111111"/>
<rect x="14.6665" y="22.6667" width="2.66667" height="5.33334" fill="#111111"/>
<path fill-rule="evenodd" clip-rule="evenodd" d="M16 24C20.4183 24 24 20.4183 24 16C24 11.5817 20.4183 8 16 8C11.5817 8 8 11.5817 8 16C8 20.4183 11.5817 24 16 24ZM16 21.3333C18.9455 21.3333 21.3333 18.9455 21.3333 16C21.3333 13.0545 18.9455 10.6667 16 10.6667C13.0545 10.6667 10.6667 13.0545 10.6667 16C10.6667 18.9455 13.0545 21.3333 16 21.3333Z" fill="#111111"/>
</g>
</g>
</svg>
