<svg width="20" height="20" viewBox="0 0 20 20" fill="none" xmlns="http://www.w3.org/2000/svg">
<g clip-path="url(#clip0_1_704)">
<path d="M5.00002 1.66666C7.24169 1.66666 9.18669 2.93082 10.1642 4.78416C11.145 3.40249 12.7584 2.49999 14.5834 2.49999H17.5V4.58332C17.5 7.57499 15.075 9.99999 12.0834 9.99999H10.8334V10.8333H15V16.6667C15 17.5875 14.2542 18.3333 13.3334 18.3333H6.66669C5.74585 18.3333 5.00002 17.5875 5.00002 16.6667V10.8333H9.16669V9.16666H7.50002C4.27835 9.16666 1.66669 6.55499 1.66669 3.33332V1.66666H5.00002ZM13.3334 12.5H6.66669V16.6667H13.3334V12.5ZM15.8334 4.16666H14.5834C12.5125 4.16666 10.8334 5.84582 10.8334 7.91666V8.33332H12.0834C14.1542 8.33332 15.8334 6.65416 15.8334 4.58332V4.16666ZM5.00002 3.33332H3.33335C3.33335 5.63416 5.19919 7.49999 7.50002 7.49999H9.16669C9.16669 5.19916 7.30085 3.33332 5.00002 3.33332Z" fill="#06492C" fill-opacity="0.5"/>
</g>
<defs>
<clipPath id="clip0_1_704">
<rect width="20" height="20" fill="white"/>
</clipPath>
</defs>
</svg>
