<svg width="20" height="20" viewBox="0 0 20 20" fill="none" xmlns="http://www.w3.org/2000/svg">
<g clip-path="url(#clip0_1_697)">
<path d="M10 18.3333C5.39752 18.3333 1.66669 14.6025 1.66669 10C1.66669 5.39751 5.39752 1.66667 10 1.66667C14.6025 1.66667 18.3334 5.39751 18.3334 10C18.3334 14.6025 14.6025 18.3333 10 18.3333ZM10 16.6667C11.7681 16.6667 13.4638 15.9643 14.7141 14.7141C15.9643 13.4638 16.6667 11.7681 16.6667 10C16.6667 8.2319 15.9643 6.5362 14.7141 5.28596C13.4638 4.03572 11.7681 3.33334 10 3.33334C8.23191 3.33334 6.53622 4.03572 5.28598 5.28596C4.03573 6.5362 3.33335 8.2319 3.33335 10C3.33335 11.7681 4.03573 13.4638 5.28598 14.7141C6.53622 15.9643 8.23191 16.6667 10 16.6667ZM8.85169 7.01251L12.9175 9.72251C12.9632 9.75293 13.0007 9.79419 13.0267 9.8426C13.0526 9.89101 13.0662 9.94508 13.0662 10C13.0662 10.0549 13.0526 10.109 13.0267 10.1574C13.0007 10.2058 12.9632 10.2471 12.9175 10.2775L8.85085 12.9875C8.80071 13.0207 8.74251 13.0398 8.68241 13.0426C8.62232 13.0455 8.56258 13.032 8.50953 13.0036C8.45647 12.9753 8.41209 12.9331 8.38107 12.8815C8.35005 12.83 8.33357 12.771 8.33335 12.7108V7.28917C8.33347 7.22888 8.34993 7.16975 8.38099 7.11807C8.41204 7.0664 8.45654 7.02411 8.50973 6.99572C8.56291 6.96733 8.62281 6.9539 8.68303 6.95686C8.74324 6.95981 8.80153 6.97904 8.85169 7.01251Z" fill="#06492C" fill-opacity="0.5"/>
</g>
<defs>
<clipPath id="clip0_1_697">
<rect width="20" height="20" fill="white"/>
</clipPath>
</defs>
</svg>
