<svg width="24" height="24" viewBox="0 0 24 24" fill="none" xmlns="http://www.w3.org/2000/svg">
<g clip-path="url(#clip0_1_478)">
<path d="M4.00008 6.414L0.75708 3.172L2.17208 1.757L5.41408 5H20.6561C20.8119 4.99999 20.9657 5.03642 21.1049 5.10637C21.2442 5.17632 21.3652 5.27787 21.4583 5.4029C21.5514 5.52793 21.6139 5.67299 21.641 5.82649C21.668 5.97999 21.6588 6.13769 21.6141 6.287L19.2141 14.287C19.1523 14.4931 19.0258 14.6738 18.8532 14.8022C18.6806 14.9307 18.4712 15 18.2561 15H6.00008V17H17.0001V19H5.00008C4.73486 19 4.48051 18.8946 4.29297 18.7071C4.10544 18.5196 4.00008 18.2652 4.00008 18V6.414ZM6.00008 7V13H17.5121L19.3121 7H6.00008ZM5.50008 23C5.10226 23 4.72072 22.842 4.43942 22.5607C4.15812 22.2794 4.00008 21.8978 4.00008 21.5C4.00008 21.1022 4.15812 20.7206 4.43942 20.4393C4.72072 20.158 5.10226 20 5.50008 20C5.8979 20 6.27944 20.158 6.56074 20.4393C6.84204 20.7206 7.00008 21.1022 7.00008 21.5C7.00008 21.8978 6.84204 22.2794 6.56074 22.5607C6.27944 22.842 5.8979 23 5.50008 23ZM17.5001 23C17.1023 23 16.7207 22.842 16.4394 22.5607C16.1581 22.2794 16.0001 21.8978 16.0001 21.5C16.0001 21.1022 16.1581 20.7206 16.4394 20.4393C16.7207 20.158 17.1023 20 17.5001 20C17.8979 20 18.2794 20.158 18.5607 20.4393C18.842 20.7206 19.0001 21.1022 19.0001 21.5C19.0001 21.8978 18.842 22.2794 18.5607 22.5607C18.2794 22.842 17.8979 23 17.5001 23Z" fill="#3BCEAC" fill-opacity="0.75"/>
</g>
<defs>
<clipPath id="clip0_1_478">
<rect width="24" height="24" fill="white"/>
</clipPath>
</defs>
</svg>
