<svg width="32" height="32" viewBox="0 0 32 32" fill="none" xmlns="http://www.w3.org/2000/svg">
<g opacity="0.35" clip-path="url(#clip0_1_259)">
<path d="M16.0001 22.6667C20.8827 22.6667 25.1534 24.7667 27.4761 27.9L25.0201 29.0613C23.1294 26.8213 19.7961 25.3333 16.0001 25.3333C12.2041 25.3333 8.87072 26.8213 6.98006 29.0613L4.52539 27.8987C6.84806 24.7653 11.1174 22.6667 16.0001 22.6667ZM16.0001 2.66666C17.7682 2.66666 19.4639 3.36904 20.7141 4.61928C21.9643 5.86952 22.6667 7.56521 22.6667 9.33332V13.3333C22.6666 15.0513 22.0033 16.7029 20.8152 17.9437C19.627 19.1845 18.0057 19.9188 16.2894 19.9933L16.0001 20C14.2319 20 12.5363 19.2976 11.286 18.0474C10.0358 16.7971 9.33339 15.1014 9.33339 13.3333V9.33332C9.33349 7.61537 9.99678 5.96377 11.1849 4.72295C12.3731 3.48213 13.9944 2.74788 15.7107 2.67332L16.0001 2.66666ZM16.0001 5.33332C14.9798 5.33327 13.998 5.72309 13.2557 6.42303C12.5134 7.12298 12.0666 8.08013 12.0067 9.09866L12.0001 9.33332V13.3333C11.9991 14.3745 12.4041 15.3751 13.1291 16.1224C13.8541 16.8697 14.8419 17.3049 15.8827 17.3355C16.9234 17.366 17.9351 16.9895 18.7027 16.286C19.4703 15.5825 19.9333 14.6075 19.9934 13.568L20.0001 13.3333V9.33332C20.0001 8.27246 19.5786 7.25504 18.8285 6.5049C18.0783 5.75475 17.0609 5.33332 16.0001 5.33332Z" fill="#111111"/>
</g>
<defs>
<clipPath id="clip0_1_259">
<rect width="32" height="32" fill="white"/>
</clipPath>
</defs>
</svg>
